<svg width="375" height="200" viewBox="0 0 375 200" fill="none" xmlns="http://www.w3.org/2000/svg">
<g clip-path="url(#clip0)">
<rect width="375" height="200" fill="#D8D8D8"/>
<path d="M91.091 80.543C91.091 80.6367 91.0676 80.7188 91.0207 80.7891C90.9738 80.8594 90.8918 80.918 90.7746 80.9648C90.6574 81 90.4992 81.0293 90.3 81.0527C90.1125 81.0879 89.8723 81.1055 89.5793 81.1055C89.298 81.1055 89.0578 81.0879 88.8586 81.0527C88.6594 81.0293 88.5012 81 88.384 80.9648C88.2668 80.918 88.1848 80.8594 88.1379 80.7891C88.091 80.7188 88.0676 80.6367 88.0676 80.543V58.7109C88.0676 58.6172 88.091 58.5352 88.1379 58.4648C88.1965 58.3945 88.2844 58.3418 88.4016 58.3066C88.5305 58.2598 88.6887 58.2246 88.8762 58.2012C89.0754 58.166 89.3098 58.1484 89.5793 58.1484C89.8723 58.1484 90.1125 58.166 90.3 58.2012C90.4992 58.2246 90.6574 58.2598 90.7746 58.3066C90.8918 58.3418 90.9738 58.3945 91.0207 58.4648C91.0676 58.5352 91.091 58.6172 91.091 58.7109V80.543ZM125.47 80.543C125.47 80.6367 125.447 80.7188 125.4 80.7891C125.353 80.8594 125.271 80.918 125.154 80.9648C125.037 81 124.884 81.0293 124.697 81.0527C124.521 81.0879 124.287 81.1055 123.994 81.1055C123.724 81.1055 123.49 81.0879 123.291 81.0527C123.103 81.0293 122.951 81 122.834 80.9648C122.728 80.918 122.652 80.8594 122.605 80.7891C122.558 80.7188 122.535 80.6367 122.535 80.543V60.7324H122.5L114.396 80.6309C114.361 80.7129 114.308 80.7832 114.238 80.8418C114.179 80.9004 114.086 80.9531 113.957 81C113.839 81.0352 113.693 81.0586 113.517 81.0703C113.353 81.0938 113.154 81.1055 112.92 81.1055C112.673 81.1055 112.463 81.0938 112.287 81.0703C112.111 81.0469 111.964 81.0176 111.847 80.9824C111.73 80.9355 111.636 80.8828 111.566 80.8242C111.507 80.7656 111.466 80.7012 111.443 80.6309L103.691 60.7324H103.673V80.543C103.673 80.6367 103.65 80.7188 103.603 80.7891C103.556 80.8594 103.474 80.918 103.357 80.9648C103.24 81 103.088 81.0293 102.9 81.0527C102.713 81.0879 102.472 81.1055 102.179 81.1055C101.898 81.1055 101.664 81.0879 101.476 81.0527C101.289 81.0293 101.136 81 101.019 80.9648C100.914 80.918 100.838 80.8594 100.791 80.7891C100.755 80.7188 100.738 80.6367 100.738 80.543V59.625C100.738 59.1328 100.867 58.7812 101.125 58.5703C101.382 58.3594 101.67 58.2539 101.986 58.2539H103.814C104.189 58.2539 104.517 58.2891 104.798 58.3594C105.08 58.4297 105.326 58.541 105.537 58.6934C105.748 58.8457 105.923 59.0391 106.064 59.2734C106.205 59.5078 106.328 59.7832 106.433 60.0996L113.025 76.5703H113.113L119.968 60.1523C120.097 59.8008 120.238 59.502 120.39 59.2559C120.543 59.0098 120.707 58.8164 120.882 58.6758C121.07 58.5234 121.275 58.418 121.498 58.3594C121.72 58.2891 121.978 58.2539 122.271 58.2539H124.187C124.363 58.2539 124.527 58.2832 124.679 58.3418C124.843 58.3887 124.978 58.4707 125.084 58.5879C125.201 58.6934 125.295 58.834 125.365 59.0098C125.435 59.1738 125.47 59.3789 125.47 59.625V80.543ZM152.168 79.9277C152.262 80.1855 152.309 80.3965 152.309 80.5605C152.32 80.7129 152.279 80.8301 152.186 80.9121C152.092 80.9941 151.934 81.0469 151.711 81.0703C151.5 81.0938 151.213 81.1055 150.85 81.1055C150.486 81.1055 150.193 81.0938 149.971 81.0703C149.76 81.0586 149.596 81.0352 149.479 81C149.373 80.9531 149.291 80.8945 149.232 80.8242C149.186 80.7539 149.139 80.666 149.092 80.5605L147.141 75.0234H137.684L135.82 80.4902C135.785 80.5957 135.738 80.6895 135.68 80.7715C135.621 80.8418 135.533 80.9062 135.416 80.9648C135.311 81.0117 135.152 81.0469 134.941 81.0703C134.742 81.0938 134.479 81.1055 134.15 81.1055C133.811 81.1055 133.529 81.0879 133.307 81.0527C133.096 81.0293 132.943 80.9766 132.85 80.8945C132.768 80.8125 132.727 80.6953 132.727 80.543C132.738 80.3789 132.791 80.168 132.885 79.9102L140.514 58.7812C140.561 58.6523 140.619 58.5469 140.689 58.4648C140.771 58.3828 140.883 58.3184 141.023 58.2715C141.176 58.2246 141.363 58.1953 141.586 58.1836C141.82 58.1602 142.113 58.1484 142.465 58.1484C142.84 58.1484 143.15 58.1602 143.396 58.1836C143.643 58.1953 143.842 58.2246 143.994 58.2715C144.146 58.3184 144.264 58.3887 144.346 58.4824C144.428 58.5645 144.492 58.6699 144.539 58.7988L152.168 79.9277ZM142.377 61.2773H142.359L138.439 72.6152H146.35L142.377 61.2773ZM176.387 61.3477C176.387 61.5703 176.375 61.7695 176.352 61.9453C176.329 62.1094 176.293 62.25 176.246 62.3672C176.2 62.4727 176.141 62.5488 176.071 62.5957C176 62.6426 175.924 62.666 175.842 62.666C175.702 62.666 175.467 62.5547 175.139 62.332C174.811 62.1094 174.371 61.8633 173.821 61.5938C173.27 61.3242 172.608 61.0781 171.834 60.8555C171.073 60.6328 170.164 60.5215 169.11 60.5215C167.856 60.5215 166.731 60.75 165.735 61.207C164.739 61.6641 163.895 62.2969 163.204 63.1055C162.512 63.9141 161.979 64.875 161.604 65.9883C161.241 67.1016 161.059 68.3086 161.059 69.6094C161.059 71.0625 161.258 72.3516 161.657 73.4766C162.067 74.6016 162.629 75.5508 163.344 76.3242C164.059 77.0977 164.909 77.6836 165.893 78.082C166.889 78.4805 167.979 78.6797 169.163 78.6797C169.866 78.6797 170.575 78.5977 171.289 78.4336C172.016 78.2578 172.69 78 173.311 77.6602V71.0332H168.038C167.838 71.0332 167.686 70.9336 167.58 70.7344C167.487 70.5352 167.44 70.2246 167.44 69.8027C167.44 69.5801 167.452 69.3926 167.475 69.2402C167.498 69.0762 167.534 68.9473 167.58 68.8535C167.639 68.748 167.704 68.6719 167.774 68.625C167.844 68.5781 167.932 68.5547 168.038 68.5547H175.262C175.391 68.5547 175.52 68.5781 175.649 68.625C175.778 68.6719 175.895 68.7422 176 68.8359C176.106 68.9297 176.188 69.0586 176.246 69.2227C176.305 69.3867 176.334 69.5742 176.334 69.7852V78.4512C176.334 78.7559 176.282 79.0195 176.176 79.2422C176.071 79.4648 175.848 79.6641 175.508 79.8398C175.168 80.0039 174.729 80.1855 174.19 80.3848C173.651 80.584 173.094 80.7539 172.52 80.8945C171.946 81.0352 171.366 81.1406 170.78 81.2109C170.194 81.2812 169.614 81.3164 169.039 81.3164C167.282 81.3164 165.711 81.0469 164.329 80.5078C162.946 79.957 161.774 79.1777 160.813 78.1699C159.864 77.1621 159.137 75.9551 158.633 74.5488C158.129 73.1426 157.877 71.5723 157.877 69.8379C157.877 68.0332 158.147 66.3984 158.686 64.9336C159.237 63.4688 160.004 62.2207 160.989 61.1895C161.985 60.1582 163.174 59.3613 164.557 58.7988C165.952 58.2246 167.493 57.9375 169.18 57.9375C170.047 57.9375 170.862 58.0137 171.623 58.166C172.385 58.3184 173.059 58.5 173.645 58.7109C174.243 58.9102 174.741 59.1328 175.139 59.3789C175.549 59.6133 175.83 59.8066 175.983 59.959C176.135 60.1113 176.241 60.2871 176.299 60.4863C176.358 60.6855 176.387 60.9727 176.387 61.3477ZM198.268 79.752C198.268 79.9629 198.257 80.1504 198.233 80.3145C198.21 80.4668 198.169 80.5957 198.11 80.7012C198.052 80.8066 197.981 80.8828 197.899 80.9297C197.829 80.9766 197.747 81 197.653 81H186.737C186.468 81 186.21 80.9121 185.964 80.7363C185.729 80.5488 185.612 80.2266 185.612 79.7695V59.4844C185.612 59.0273 185.729 58.7109 185.964 58.5352C186.21 58.3477 186.468 58.2539 186.737 58.2539H197.53C197.624 58.2539 197.706 58.2773 197.776 58.3242C197.858 58.3711 197.923 58.4473 197.97 58.5527C198.016 58.6582 198.052 58.793 198.075 58.957C198.11 59.1094 198.128 59.3027 198.128 59.5371C198.128 59.748 198.11 59.9355 198.075 60.0996C198.052 60.252 198.016 60.3809 197.97 60.4863C197.923 60.5801 197.858 60.6504 197.776 60.6973C197.706 60.7441 197.624 60.7676 197.53 60.7676H188.636V67.9043H196.264C196.358 67.9043 196.44 67.9336 196.511 67.9922C196.593 68.0391 196.657 68.1094 196.704 68.2031C196.763 68.2969 196.804 68.4258 196.827 68.5898C196.85 68.7539 196.862 68.9473 196.862 69.1699C196.862 69.3809 196.85 69.5625 196.827 69.7148C196.804 69.8672 196.763 69.9902 196.704 70.084C196.657 70.1777 196.593 70.248 196.511 70.2949C196.44 70.3301 196.358 70.3477 196.264 70.3477H188.636V78.4863H197.653C197.747 78.4863 197.829 78.5098 197.899 78.5566C197.981 78.6035 198.052 78.6797 198.11 78.7852C198.169 78.8789 198.21 79.0078 198.233 79.1719C198.257 79.3242 198.268 79.5176 198.268 79.752ZM235.738 79.752C235.738 79.9863 235.697 80.1855 235.615 80.3496C235.545 80.5137 235.445 80.6484 235.316 80.7539C235.199 80.8594 235.064 80.9355 234.912 80.9824C234.759 81.0293 234.607 81.0527 234.455 81.0527H233.488C233.183 81.0527 232.914 81.0234 232.679 80.9648C232.457 80.8945 232.24 80.7773 232.029 80.6133C231.83 80.4375 231.625 80.2031 231.414 79.9102C231.214 79.6172 230.992 79.2422 230.746 78.7852L223.574 65.8477C223.199 65.1797 222.818 64.4824 222.431 63.7559C222.056 63.0176 221.705 62.3027 221.377 61.6113H221.341C221.365 62.4551 221.382 63.3164 221.394 64.1953C221.406 65.0742 221.412 65.9473 221.412 66.8145V80.543C221.412 80.625 221.388 80.707 221.341 80.7891C221.295 80.8594 221.213 80.918 221.095 80.9648C220.99 81 220.843 81.0293 220.656 81.0527C220.48 81.0879 220.252 81.1055 219.97 81.1055C219.689 81.1055 219.455 81.0879 219.267 81.0527C219.091 81.0293 218.951 81 218.845 80.9648C218.74 80.918 218.664 80.8594 218.617 80.7891C218.57 80.707 218.546 80.625 218.546 80.543V59.5547C218.546 59.0859 218.675 58.752 218.933 58.5527C219.191 58.3535 219.472 58.2539 219.777 58.2539H221.218C221.558 58.2539 221.839 58.2832 222.062 58.3418C222.296 58.4004 222.502 58.5 222.677 58.6406C222.865 58.7695 223.041 58.957 223.205 59.2031C223.38 59.4375 223.568 59.7363 223.767 60.0996L229.287 70.084C229.627 70.6934 229.955 71.291 230.271 71.877C230.588 72.4512 230.892 73.0195 231.185 73.582C231.478 74.1445 231.765 74.7012 232.046 75.252C232.339 75.791 232.627 76.3359 232.908 76.8867H232.925C232.902 75.9609 232.884 75 232.873 74.0039C232.873 72.9961 232.873 72.0293 232.873 71.1035V58.7637C232.873 58.6816 232.896 58.6055 232.943 58.5352C232.99 58.4648 233.066 58.4062 233.171 58.3594C233.289 58.3008 233.435 58.2598 233.611 58.2363C233.798 58.2129 234.039 58.2012 234.332 58.2012C234.589 58.2012 234.812 58.2129 235 58.2363C235.187 58.2598 235.334 58.3008 235.439 58.3594C235.545 58.4062 235.621 58.4648 235.668 58.5352C235.714 58.6055 235.738 58.6816 235.738 58.7637V79.752ZM264.439 69.3633C264.439 71.2031 264.223 72.8613 263.789 74.3379C263.355 75.8145 262.705 77.0742 261.838 78.1172C260.982 79.1484 259.904 79.9453 258.604 80.5078C257.303 81.0586 255.785 81.334 254.051 81.334C252.34 81.334 250.857 81.082 249.604 80.5781C248.361 80.0625 247.33 79.3184 246.51 78.3457C245.701 77.373 245.098 76.166 244.699 74.7246C244.301 73.2832 244.102 71.625 244.102 69.75C244.102 67.957 244.318 66.3281 244.752 64.8633C245.186 63.3984 245.836 62.1562 246.703 61.1367C247.57 60.1055 248.654 59.3145 249.955 58.7637C251.256 58.2012 252.773 57.9199 254.508 57.9199C256.184 57.9199 257.643 58.1719 258.885 58.6758C260.127 59.1797 261.158 59.918 261.979 60.8906C262.811 61.8516 263.426 63.0469 263.824 64.4766C264.234 65.8945 264.439 67.5234 264.439 69.3633ZM261.258 69.5742C261.258 68.2852 261.141 67.0898 260.906 65.9883C260.684 64.875 260.303 63.9141 259.764 63.1055C259.236 62.2852 258.527 61.6465 257.637 61.1895C256.746 60.7324 255.645 60.5039 254.332 60.5039C253.02 60.5039 251.918 60.75 251.027 61.2422C250.137 61.7344 249.41 62.3906 248.848 63.2109C248.297 64.0312 247.898 64.9922 247.652 66.0938C247.418 67.1836 247.301 68.332 247.301 69.5391C247.301 70.875 247.412 72.1055 247.635 73.2305C247.857 74.3555 248.232 75.3281 248.76 76.1484C249.287 76.957 249.99 77.5898 250.869 78.0469C251.76 78.4922 252.873 78.7148 254.209 78.7148C255.533 78.7148 256.646 78.4688 257.549 77.9766C258.451 77.4844 259.178 76.8223 259.729 75.9902C260.279 75.1465 260.672 74.1738 260.906 73.0723C261.141 71.9707 261.258 70.8047 261.258 69.5742ZM286.092 59.5547C286.092 59.7773 286.08 59.9707 286.057 60.1348C286.034 60.2988 285.993 60.4336 285.934 60.5391C285.887 60.6328 285.823 60.7031 285.741 60.75C285.67 60.7969 285.588 60.8203 285.495 60.8203H279.096V80.543C279.096 80.6367 279.073 80.7188 279.026 80.7891C278.979 80.8594 278.897 80.918 278.78 80.9648C278.663 81 278.504 81.0293 278.305 81.0527C278.118 81.0879 277.877 81.1055 277.584 81.1055C277.303 81.1055 277.063 81.0879 276.864 81.0527C276.664 81.0293 276.506 81 276.389 80.9648C276.272 80.918 276.19 80.8594 276.143 80.7891C276.096 80.7188 276.073 80.6367 276.073 80.543V60.8203H269.674C269.58 60.8203 269.493 60.7969 269.411 60.75C269.34 60.7031 269.282 60.6328 269.235 60.5391C269.188 60.4336 269.147 60.2988 269.112 60.1348C269.088 59.9707 269.077 59.7773 269.077 59.5547C269.077 59.332 269.088 59.1387 269.112 58.9746C269.147 58.7988 269.188 58.6582 269.235 58.5527C269.282 58.4473 269.34 58.3711 269.411 58.3242C269.493 58.2773 269.58 58.2539 269.674 58.2539H285.495C285.588 58.2539 285.67 58.2773 285.741 58.3242C285.823 58.3711 285.887 58.4473 285.934 58.5527C285.993 58.6582 286.034 58.7988 286.057 58.9746C286.08 59.1387 286.092 59.332 286.092 59.5547ZM115.039 137.928C115.133 138.186 115.18 138.396 115.18 138.561C115.192 138.713 115.151 138.83 115.057 138.912C114.963 138.994 114.805 139.047 114.582 139.07C114.371 139.094 114.084 139.105 113.721 139.105C113.358 139.105 113.065 139.094 112.842 139.07C112.631 139.059 112.467 139.035 112.35 139C112.245 138.953 112.162 138.895 112.104 138.824C112.057 138.754 112.01 138.666 111.963 138.561L110.012 133.023H100.555L98.6918 138.49C98.6566 138.596 98.6098 138.689 98.5512 138.771C98.4926 138.842 98.4047 138.906 98.2875 138.965C98.182 139.012 98.0238 139.047 97.8129 139.07C97.6137 139.094 97.35 139.105 97.0219 139.105C96.682 139.105 96.4008 139.088 96.1781 139.053C95.9672 139.029 95.8148 138.977 95.7211 138.895C95.6391 138.812 95.598 138.695 95.598 138.543C95.6098 138.379 95.6625 138.168 95.7562 137.91L103.385 116.781C103.432 116.652 103.491 116.547 103.561 116.465C103.643 116.383 103.754 116.318 103.895 116.271C104.047 116.225 104.235 116.195 104.457 116.184C104.692 116.16 104.985 116.148 105.336 116.148C105.711 116.148 106.022 116.16 106.268 116.184C106.514 116.195 106.713 116.225 106.866 116.271C107.018 116.318 107.135 116.389 107.217 116.482C107.299 116.564 107.364 116.67 107.411 116.799L115.039 137.928ZM105.248 119.277H105.231L101.311 130.615H109.221L105.248 119.277ZM130.065 138.473C130.018 138.602 129.954 138.707 129.872 138.789C129.79 138.871 129.673 138.936 129.52 138.982C129.38 139.029 129.192 139.059 128.958 139.07C128.735 139.094 128.454 139.105 128.114 139.105C127.856 139.105 127.628 139.1 127.429 139.088C127.241 139.088 127.077 139.076 126.936 139.053C126.796 139.029 126.673 139.006 126.567 138.982C126.473 138.947 126.391 138.906 126.321 138.859C126.251 138.812 126.192 138.76 126.145 138.701C126.11 138.631 126.075 138.549 126.04 138.455L118.604 117.326C118.511 117.068 118.458 116.863 118.446 116.711C118.446 116.547 118.499 116.424 118.604 116.342C118.71 116.26 118.88 116.207 119.114 116.184C119.348 116.16 119.665 116.148 120.063 116.148C120.391 116.148 120.649 116.16 120.837 116.184C121.036 116.195 121.188 116.225 121.294 116.271C121.399 116.318 121.475 116.383 121.522 116.465C121.581 116.535 121.634 116.629 121.68 116.746L128.202 135.889H128.22L134.565 116.781C134.6 116.652 134.641 116.547 134.688 116.465C134.735 116.383 134.817 116.318 134.934 116.271C135.052 116.225 135.216 116.195 135.427 116.184C135.637 116.16 135.919 116.148 136.27 116.148C136.634 116.148 136.921 116.166 137.132 116.201C137.343 116.225 137.483 116.277 137.554 116.359C137.636 116.441 137.665 116.564 137.641 116.729C137.63 116.881 137.577 117.086 137.483 117.344L130.065 138.473ZM160.243 137.928C160.337 138.186 160.384 138.396 160.384 138.561C160.396 138.713 160.355 138.83 160.261 138.912C160.167 138.994 160.009 139.047 159.786 139.07C159.575 139.094 159.288 139.105 158.925 139.105C158.562 139.105 158.269 139.094 158.046 139.07C157.835 139.059 157.671 139.035 157.554 139C157.448 138.953 157.366 138.895 157.308 138.824C157.261 138.754 157.214 138.666 157.167 138.561L155.216 133.023H145.759L143.896 138.49C143.861 138.596 143.814 138.689 143.755 138.771C143.696 138.842 143.609 138.906 143.491 138.965C143.386 139.012 143.228 139.047 143.017 139.07C142.818 139.094 142.554 139.105 142.226 139.105C141.886 139.105 141.605 139.088 141.382 139.053C141.171 139.029 141.019 138.977 140.925 138.895C140.843 138.812 140.802 138.695 140.802 138.543C140.814 138.379 140.866 138.168 140.96 137.91L148.589 116.781C148.636 116.652 148.695 116.547 148.765 116.465C148.847 116.383 148.958 116.318 149.099 116.271C149.251 116.225 149.439 116.195 149.661 116.184C149.896 116.16 150.189 116.148 150.54 116.148C150.915 116.148 151.226 116.16 151.472 116.184C151.718 116.195 151.917 116.225 152.07 116.271C152.222 116.318 152.339 116.389 152.421 116.482C152.503 116.564 152.568 116.67 152.614 116.799L160.243 137.928ZM150.452 119.277H150.435L146.515 130.615H154.425L150.452 119.277ZM170.681 138.543C170.681 138.637 170.658 138.719 170.611 138.789C170.564 138.859 170.482 138.918 170.365 138.965C170.248 139 170.089 139.029 169.89 139.053C169.703 139.088 169.462 139.105 169.17 139.105C168.888 139.105 168.648 139.088 168.449 139.053C168.25 139.029 168.091 139 167.974 138.965C167.857 138.918 167.775 138.859 167.728 138.789C167.681 138.719 167.658 138.637 167.658 138.543V116.711C167.658 116.617 167.681 116.535 167.728 116.465C167.787 116.395 167.875 116.342 167.992 116.307C168.121 116.26 168.279 116.225 168.466 116.201C168.666 116.166 168.9 116.148 169.17 116.148C169.462 116.148 169.703 116.166 169.89 116.201C170.089 116.225 170.248 116.26 170.365 116.307C170.482 116.342 170.564 116.395 170.611 116.465C170.658 116.535 170.681 116.617 170.681 116.711V138.543ZM192.123 137.682C192.123 137.916 192.111 138.115 192.088 138.279C192.064 138.432 192.023 138.566 191.965 138.684C191.918 138.789 191.854 138.871 191.771 138.93C191.701 138.977 191.613 139 191.508 139H181.453C181.184 139 180.926 138.912 180.68 138.736C180.445 138.549 180.328 138.227 180.328 137.77V116.711C180.328 116.617 180.352 116.535 180.398 116.465C180.445 116.395 180.527 116.342 180.645 116.307C180.762 116.26 180.92 116.225 181.119 116.201C181.318 116.166 181.559 116.148 181.84 116.148C182.133 116.148 182.373 116.166 182.561 116.201C182.76 116.225 182.918 116.26 183.035 116.307C183.152 116.342 183.234 116.395 183.281 116.465C183.328 116.535 183.352 116.617 183.352 116.711V136.381H191.508C191.613 136.381 191.701 136.41 191.771 136.469C191.854 136.516 191.918 136.592 191.965 136.697C192.023 136.791 192.064 136.92 192.088 137.084C192.111 137.248 192.123 137.447 192.123 137.682ZM216.114 137.928C216.207 138.186 216.254 138.396 216.254 138.561C216.266 138.713 216.225 138.83 216.131 138.912C216.038 138.994 215.879 139.047 215.657 139.07C215.446 139.094 215.159 139.105 214.795 139.105C214.432 139.105 214.139 139.094 213.916 139.07C213.705 139.059 213.541 139.035 213.424 139C213.319 138.953 213.237 138.895 213.178 138.824C213.131 138.754 213.084 138.666 213.038 138.561L211.086 133.023H201.629L199.766 138.49C199.731 138.596 199.684 138.689 199.625 138.771C199.567 138.842 199.479 138.906 199.362 138.965C199.256 139.012 199.098 139.047 198.887 139.07C198.688 139.094 198.424 139.105 198.096 139.105C197.756 139.105 197.475 139.088 197.252 139.053C197.041 139.029 196.889 138.977 196.795 138.895C196.713 138.812 196.672 138.695 196.672 138.543C196.684 138.379 196.737 138.168 196.83 137.91L204.459 116.781C204.506 116.652 204.565 116.547 204.635 116.465C204.717 116.383 204.829 116.318 204.969 116.271C205.121 116.225 205.309 116.195 205.532 116.184C205.766 116.16 206.059 116.148 206.411 116.148C206.786 116.148 207.096 116.16 207.342 116.184C207.588 116.195 207.788 116.225 207.94 116.271C208.092 116.318 208.209 116.389 208.291 116.482C208.373 116.564 208.438 116.67 208.485 116.799L216.114 137.928ZM206.323 119.277H206.305L202.385 130.615H210.295L206.323 119.277ZM238.522 132.479C238.522 133.193 238.429 133.855 238.241 134.465C238.065 135.062 237.813 135.602 237.485 136.082C237.157 136.562 236.759 136.984 236.29 137.348C235.833 137.711 235.311 138.016 234.725 138.262C234.151 138.508 233.53 138.695 232.862 138.824C232.206 138.941 231.45 139 230.595 139H224.653C224.384 139 224.126 138.912 223.88 138.736C223.645 138.549 223.528 138.227 223.528 137.77V117.484C223.528 117.027 223.645 116.711 223.88 116.535C224.126 116.348 224.384 116.254 224.653 116.254H229.821C231.18 116.254 232.294 116.383 233.161 116.641C234.028 116.898 234.749 117.273 235.323 117.766C235.909 118.258 236.348 118.861 236.641 119.576C236.934 120.291 237.081 121.1 237.081 122.002C237.081 122.541 237.016 123.057 236.887 123.549C236.759 124.041 236.565 124.498 236.307 124.92C236.061 125.33 235.745 125.699 235.358 126.027C234.983 126.355 234.55 126.625 234.057 126.836C234.679 126.953 235.259 127.17 235.798 127.486C236.337 127.791 236.805 128.184 237.204 128.664C237.614 129.145 237.936 129.707 238.171 130.352C238.405 130.996 238.522 131.705 238.522 132.479ZM233.97 122.301C233.97 121.75 233.893 121.252 233.741 120.807C233.589 120.361 233.348 119.986 233.02 119.682C232.692 119.365 232.264 119.125 231.737 118.961C231.21 118.797 230.512 118.715 229.645 118.715H226.516V126.08H229.962C230.747 126.08 231.38 125.98 231.86 125.781C232.341 125.57 232.739 125.295 233.055 124.955C233.372 124.604 233.6 124.199 233.741 123.742C233.893 123.273 233.97 122.793 233.97 122.301ZM235.341 132.654C235.341 131.975 235.229 131.377 235.007 130.861C234.796 130.346 234.479 129.912 234.057 129.561C233.647 129.209 233.126 128.945 232.493 128.77C231.872 128.582 231.087 128.488 230.137 128.488H226.516V136.504H230.911C231.602 136.504 232.206 136.422 232.721 136.258C233.237 136.094 233.688 135.854 234.075 135.537C234.473 135.209 234.784 134.805 235.007 134.324C235.229 133.844 235.341 133.287 235.341 132.654ZM258.505 137.682C258.505 137.916 258.493 138.115 258.47 138.279C258.446 138.432 258.405 138.566 258.347 138.684C258.3 138.789 258.236 138.871 258.154 138.93C258.083 138.977 257.995 139 257.89 139H247.835C247.566 139 247.308 138.912 247.062 138.736C246.827 138.549 246.71 138.227 246.71 137.77V116.711C246.71 116.617 246.734 116.535 246.78 116.465C246.827 116.395 246.909 116.342 247.027 116.307C247.144 116.26 247.302 116.225 247.501 116.201C247.7 116.166 247.941 116.148 248.222 116.148C248.515 116.148 248.755 116.166 248.943 116.201C249.142 116.225 249.3 116.26 249.417 116.307C249.534 116.342 249.616 116.395 249.663 116.465C249.71 116.535 249.734 116.617 249.734 116.711V136.381H257.89C257.995 136.381 258.083 136.41 258.154 136.469C258.236 136.516 258.3 136.592 258.347 136.697C258.405 136.791 258.446 136.92 258.47 137.084C258.493 137.248 258.505 137.447 258.505 137.682ZM278.119 137.752C278.119 137.963 278.107 138.15 278.084 138.314C278.06 138.467 278.019 138.596 277.961 138.701C277.902 138.807 277.832 138.883 277.75 138.93C277.679 138.977 277.597 139 277.504 139H266.587C266.318 139 266.06 138.912 265.814 138.736C265.58 138.549 265.462 138.227 265.462 137.77V117.484C265.462 117.027 265.58 116.711 265.814 116.535C266.06 116.348 266.318 116.254 266.587 116.254H277.38C277.474 116.254 277.556 116.277 277.627 116.324C277.709 116.371 277.773 116.447 277.82 116.553C277.867 116.658 277.902 116.793 277.925 116.957C277.961 117.109 277.978 117.303 277.978 117.537C277.978 117.748 277.961 117.936 277.925 118.1C277.902 118.252 277.867 118.381 277.82 118.486C277.773 118.58 277.709 118.65 277.627 118.697C277.556 118.744 277.474 118.768 277.38 118.768H268.486V125.904H276.115C276.209 125.904 276.291 125.934 276.361 125.992C276.443 126.039 276.507 126.109 276.554 126.203C276.613 126.297 276.654 126.426 276.677 126.59C276.701 126.754 276.712 126.947 276.712 127.17C276.712 127.381 276.701 127.562 276.677 127.715C276.654 127.867 276.613 127.99 276.554 128.084C276.507 128.178 276.443 128.248 276.361 128.295C276.291 128.33 276.209 128.348 276.115 128.348H268.486V136.486H277.504C277.597 136.486 277.679 136.51 277.75 136.557C277.832 136.604 277.902 136.68 277.961 136.785C278.019 136.879 278.06 137.008 278.084 137.172C278.107 137.324 278.119 137.518 278.119 137.752Z" fill="#757272"/>
</g>
<defs>
<clipPath id="clip0">
<rect width="375" height="200" fill="white"/>
</clipPath>
</defs>
</svg>
